<mxfile host="app.diagrams.net" modified="2023-12-11T08:28:55.674Z" agent="Mozilla/5.0 (Windows NT 10.0; Win64; x64) AppleWebKit/537.36 (KHTML, like Gecko) Chrome/120.0.0.0 Safari/537.36" etag="oDz4biN6onppbHkNXofb" version="22.1.7" type="device">
  <diagram name="Page-1" id="JYXHyseqP5_zEm-ljBrs">
    <mxGraphModel dx="3244" dy="1260" grid="1" gridSize="10" guides="1" tooltips="1" connect="1" arrows="1" fold="1" page="1" pageScale="1" pageWidth="850" pageHeight="1100" math="0" shadow="0">
      <root>
        <mxCell id="0" />
        <mxCell id="1" parent="0" />
        <mxCell id="xEJUAmrWg28aFrXZfl5t-11" value="" style="rounded=1;whiteSpace=wrap;html=1;dashed=1;fillColor=#E6E6E6;fontColor=#333333;strokeColor=#0c57ed;glass=0;gradientColor=none;sketch=1;curveFitting=1;jiggle=2;shadow=0;" vertex="1" parent="1">
          <mxGeometry x="-425" y="40" width="1140" height="660" as="geometry" />
        </mxCell>
        <mxCell id="xEJUAmrWg28aFrXZfl5t-34" value="" style="rounded=1;whiteSpace=wrap;html=1;fillColor=#d2d0d0;strokeColor=none;sketch=1;curveFitting=1;jiggle=2;" vertex="1" parent="1">
          <mxGeometry x="563" y="100" width="120" height="200" as="geometry" />
        </mxCell>
        <mxCell id="xEJUAmrWg28aFrXZfl5t-27" style="edgeStyle=orthogonalEdgeStyle;rounded=0;orthogonalLoop=1;jettySize=auto;html=1;" edge="1" parent="1" source="xEJUAmrWg28aFrXZfl5t-8">
          <mxGeometry relative="1" as="geometry">
            <mxPoint x="224" y="362" as="targetPoint" />
          </mxGeometry>
        </mxCell>
        <mxCell id="xEJUAmrWg28aFrXZfl5t-8" value="" style="image;aspect=fixed;html=1;points=[];align=center;fontSize=12;image=img/lib/azure2/databases/Azure_Database_PostgreSQL_Server.svg;" vertex="1" parent="1">
          <mxGeometry x="482" y="330" width="48" height="64" as="geometry" />
        </mxCell>
        <mxCell id="xEJUAmrWg28aFrXZfl5t-42" style="edgeStyle=orthogonalEdgeStyle;rounded=0;orthogonalLoop=1;jettySize=auto;html=1;" edge="1" parent="1" source="xEJUAmrWg28aFrXZfl5t-6" target="xEJUAmrWg28aFrXZfl5t-37">
          <mxGeometry relative="1" as="geometry" />
        </mxCell>
        <mxCell id="xEJUAmrWg28aFrXZfl5t-6" value="" style="image;aspect=fixed;html=1;points=[];align=center;fontSize=12;image=img/lib/azure2/containers/Container_Registries.svg;" vertex="1" parent="1">
          <mxGeometry x="158" y="74.5" width="68" height="61" as="geometry" />
        </mxCell>
        <mxCell id="xEJUAmrWg28aFrXZfl5t-20" style="edgeStyle=orthogonalEdgeStyle;rounded=0;orthogonalLoop=1;jettySize=auto;html=1;" edge="1" parent="1" target="xEJUAmrWg28aFrXZfl5t-15">
          <mxGeometry relative="1" as="geometry">
            <mxPoint x="192" y="394" as="sourcePoint" />
          </mxGeometry>
        </mxCell>
        <mxCell id="xEJUAmrWg28aFrXZfl5t-21" style="edgeStyle=orthogonalEdgeStyle;rounded=0;orthogonalLoop=1;jettySize=auto;html=1;" edge="1" parent="1" target="xEJUAmrWg28aFrXZfl5t-8">
          <mxGeometry relative="1" as="geometry">
            <mxPoint x="224" y="362" as="sourcePoint" />
          </mxGeometry>
        </mxCell>
        <mxCell id="xEJUAmrWg28aFrXZfl5t-38" value="" style="edgeStyle=orthogonalEdgeStyle;rounded=0;orthogonalLoop=1;jettySize=auto;html=1;" edge="1" parent="1" target="xEJUAmrWg28aFrXZfl5t-37">
          <mxGeometry relative="1" as="geometry">
            <mxPoint x="192" y="330" as="sourcePoint" />
          </mxGeometry>
        </mxCell>
        <mxCell id="xEJUAmrWg28aFrXZfl5t-5" value="" style="image;aspect=fixed;html=1;points=[];align=center;fontSize=12;image=img/lib/azure2/integration/API_Management_Services.svg;" vertex="1" parent="1">
          <mxGeometry x="-20" y="330" width="65" height="60" as="geometry" />
        </mxCell>
        <mxCell id="xEJUAmrWg28aFrXZfl5t-16" style="edgeStyle=orthogonalEdgeStyle;rounded=0;orthogonalLoop=1;jettySize=auto;html=1;" edge="1" parent="1" source="xEJUAmrWg28aFrXZfl5t-14" target="xEJUAmrWg28aFrXZfl5t-5">
          <mxGeometry relative="1" as="geometry" />
        </mxCell>
        <mxCell id="xEJUAmrWg28aFrXZfl5t-14" value="" style="shape=image;html=1;verticalAlign=top;verticalLabelPosition=bottom;labelBackgroundColor=#ffffff;imageAspect=0;aspect=fixed;image=https://cdn1.iconfinder.com/data/icons/unicons-line-vol-5/24/react-128.png" vertex="1" parent="1">
          <mxGeometry x="-390" y="296" width="128" height="128" as="geometry" />
        </mxCell>
        <mxCell id="xEJUAmrWg28aFrXZfl5t-29" style="edgeStyle=orthogonalEdgeStyle;rounded=0;orthogonalLoop=1;jettySize=auto;html=1;" edge="1" parent="1" source="xEJUAmrWg28aFrXZfl5t-15">
          <mxGeometry relative="1" as="geometry">
            <mxPoint x="192" y="394" as="targetPoint" />
          </mxGeometry>
        </mxCell>
        <mxCell id="xEJUAmrWg28aFrXZfl5t-15" value="" style="image;aspect=fixed;html=1;points=[];align=center;fontSize=12;image=img/lib/azure2/security/Key_Vaults.svg;" vertex="1" parent="1">
          <mxGeometry x="158" y="520" width="68" height="68" as="geometry" />
        </mxCell>
        <mxCell id="xEJUAmrWg28aFrXZfl5t-17" style="edgeStyle=orthogonalEdgeStyle;rounded=0;orthogonalLoop=1;jettySize=auto;html=1;entryX=0.156;entryY=0.469;entryDx=0;entryDy=0;entryPerimeter=0;" edge="1" parent="1" source="xEJUAmrWg28aFrXZfl5t-5">
          <mxGeometry relative="1" as="geometry">
            <mxPoint x="169.98399999999992" y="360.0160000000001" as="targetPoint" />
          </mxGeometry>
        </mxCell>
        <mxCell id="xEJUAmrWg28aFrXZfl5t-22" value="" style="image;aspect=fixed;html=1;points=[];align=center;fontSize=12;image=img/lib/azure2/general/Resource_Groups.svg;" vertex="1" parent="1">
          <mxGeometry x="660" y="646" width="68" height="64" as="geometry" />
        </mxCell>
        <mxCell id="xEJUAmrWg28aFrXZfl5t-23" value="&lt;font style=&quot;font-size: 15px;&quot;&gt;Resource Group&lt;/font&gt;" style="text;html=1;strokeColor=none;fillColor=none;align=center;verticalAlign=middle;whiteSpace=wrap;rounded=0;" vertex="1" parent="1">
          <mxGeometry x="668" y="720" width="60" height="30" as="geometry" />
        </mxCell>
        <mxCell id="xEJUAmrWg28aFrXZfl5t-24" value="&lt;font style=&quot;font-size: 14px;&quot;&gt;Azure Key Valut&lt;/font&gt;" style="text;html=1;strokeColor=none;fillColor=none;align=center;verticalAlign=middle;whiteSpace=wrap;rounded=0;" vertex="1" parent="1">
          <mxGeometry x="130" y="600" width="169" height="30" as="geometry" />
        </mxCell>
        <mxCell id="xEJUAmrWg28aFrXZfl5t-25" value="&lt;font style=&quot;font-size: 14px;&quot;&gt;Frontend&lt;/font&gt;" style="text;html=1;strokeColor=none;fillColor=none;align=center;verticalAlign=middle;whiteSpace=wrap;rounded=0;" vertex="1" parent="1">
          <mxGeometry x="-350" y="424" width="60" height="30" as="geometry" />
        </mxCell>
        <mxCell id="xEJUAmrWg28aFrXZfl5t-26" value="&lt;font style=&quot;font-size: 14px;&quot;&gt;API Management Gateway&lt;/font&gt;" style="text;html=1;strokeColor=none;fillColor=none;align=center;verticalAlign=middle;whiteSpace=wrap;rounded=0;" vertex="1" parent="1">
          <mxGeometry x="-20" y="424" width="60" height="30" as="geometry" />
        </mxCell>
        <mxCell id="xEJUAmrWg28aFrXZfl5t-30" value="&lt;font style=&quot;font-size: 14px;&quot;&gt;Container Registry&lt;/font&gt;" style="text;html=1;strokeColor=none;fillColor=none;align=center;verticalAlign=middle;whiteSpace=wrap;rounded=0;" vertex="1" parent="1">
          <mxGeometry x="130" y="44.5" width="130" height="30" as="geometry" />
        </mxCell>
        <mxCell id="xEJUAmrWg28aFrXZfl5t-32" value="&lt;font style=&quot;font-size: 14px;&quot;&gt;PostgreSQL&lt;/font&gt;" style="text;html=1;strokeColor=none;fillColor=none;align=center;verticalAlign=middle;whiteSpace=wrap;rounded=0;" vertex="1" parent="1">
          <mxGeometry x="482" y="410" width="60" height="30" as="geometry" />
        </mxCell>
        <mxCell id="xEJUAmrWg28aFrXZfl5t-33" value="&lt;font style=&quot;font-size: 17px;&quot;&gt;AVD App Service&lt;/font&gt;" style="text;html=1;strokeColor=none;fillColor=none;align=center;verticalAlign=middle;whiteSpace=wrap;rounded=0;" vertex="1" parent="1">
          <mxGeometry x="90" y="650" width="220" height="30" as="geometry" />
        </mxCell>
        <mxCell id="xEJUAmrWg28aFrXZfl5t-9" value="" style="image;aspect=fixed;html=1;points=[];align=center;fontSize=12;image=img/lib/azure2/management_governance/Monitor.svg;" vertex="1" parent="1">
          <mxGeometry x="591.5" y="190" width="59" height="59" as="geometry" />
        </mxCell>
        <mxCell id="xEJUAmrWg28aFrXZfl5t-10" value="" style="image;aspect=fixed;html=1;points=[];align=center;fontSize=12;image=img/lib/azure2/analytics/Log_Analytics_Workspaces.svg;" vertex="1" parent="1">
          <mxGeometry x="606.5" y="130" width="44" height="44" as="geometry" />
        </mxCell>
        <mxCell id="xEJUAmrWg28aFrXZfl5t-35" value="&lt;font style=&quot;font-size: 14px;&quot;&gt;Azure Monitor&lt;/font&gt;" style="text;html=1;strokeColor=none;fillColor=none;align=center;verticalAlign=middle;whiteSpace=wrap;rounded=0;" vertex="1" parent="1">
          <mxGeometry x="574.5" y="60" width="93" height="30" as="geometry" />
        </mxCell>
        <mxCell id="xEJUAmrWg28aFrXZfl5t-41" style="edgeStyle=orthogonalEdgeStyle;rounded=0;orthogonalLoop=1;jettySize=auto;html=1;" edge="1" parent="1" source="xEJUAmrWg28aFrXZfl5t-37" target="xEJUAmrWg28aFrXZfl5t-6">
          <mxGeometry relative="1" as="geometry" />
        </mxCell>
        <mxCell id="xEJUAmrWg28aFrXZfl5t-43" style="edgeStyle=orthogonalEdgeStyle;rounded=0;orthogonalLoop=1;jettySize=auto;html=1;" edge="1" parent="1" source="xEJUAmrWg28aFrXZfl5t-37">
          <mxGeometry relative="1" as="geometry">
            <mxPoint x="192" y="330" as="targetPoint" />
          </mxGeometry>
        </mxCell>
        <mxCell id="xEJUAmrWg28aFrXZfl5t-37" value="" style="image;aspect=fixed;html=1;points=[];align=center;fontSize=12;image=img/lib/azure2/devops/Azure_DevOps.svg;" vertex="1" parent="1">
          <mxGeometry x="165" y="195" width="54" height="54" as="geometry" />
        </mxCell>
        <mxCell id="xEJUAmrWg28aFrXZfl5t-44" value="" style="image;aspect=fixed;html=1;points=[];align=center;fontSize=12;image=img/lib/azure2/compute/Container_Instances.svg;" vertex="1" parent="1">
          <mxGeometry x="165" y="328" width="64" height="68" as="geometry" />
        </mxCell>
        <mxCell id="xEJUAmrWg28aFrXZfl5t-45" value="&lt;font style=&quot;font-size: 14px;&quot;&gt;Azure Container Instance&lt;/font&gt;" style="text;html=1;strokeColor=none;fillColor=none;align=center;verticalAlign=middle;whiteSpace=wrap;rounded=0;" vertex="1" parent="1">
          <mxGeometry x="210" y="310" width="151" height="30" as="geometry" />
        </mxCell>
        <mxCell id="xEJUAmrWg28aFrXZfl5t-46" value="&lt;font style=&quot;font-size: 14px;&quot;&gt;Devops&lt;/font&gt;" style="text;html=1;strokeColor=none;fillColor=none;align=center;verticalAlign=middle;whiteSpace=wrap;rounded=0;" vertex="1" parent="1">
          <mxGeometry x="229" y="207" width="60" height="30" as="geometry" />
        </mxCell>
      </root>
    </mxGraphModel>
  </diagram>
</mxfile>
